<svg id="SvgjsSvg1019" xmlns="http://www.w3.org/2000/svg" version="1.1" xmlns:xlink="http://www.w3.org/1999/xlink" xmlns:svgjs="http://svgjs.com/svgjs" width="20" height="23" viewBox="0 0 20 23"><title>Shape 1</title><desc>Created with Avocode.</desc><defs id="SvgjsDefs1020"></defs><path id="SvgjsPath1021" d="M1519.7 53.4845L1531.56 53.4845C1532.8999999999999 53.4845 1534 52.362899999999996 1534 50.9888L1534 45.888099999999994C1534 45.8839 1534 45.87499999999999 1534 45.8704C1534 45.85659999999999 1534 45.847699999999996 1534 45.834199999999996C1534 45.824999999999996 1534 45.815799999999996 1534 45.8069C1534 45.798 1533.99 45.7842 1533.99 45.775C1533.99 45.7661 1533.99 45.7572 1533.99 45.7484C1533.98 45.73909999999999 1533.98 45.7303 1533.98 45.7164C1533.97 45.7076 1533.97 45.6984 1533.97 45.6895C1533.96 45.680600000000005 1533.96 45.671400000000006 1533.96 45.662200000000006C1533.96 45.653000000000006 1533.95 45.64410000000001 1533.95 45.63100000000001C1533.94 45.621700000000004 1533.94 45.61220000000001 1533.93 45.60790000000001C1533.93 45.59900000000001 1533.92 45.59020000000001 1533.92 45.58090000000001C1533.92 45.57170000000001 1533.91 45.56750000000001 1533.91 45.55820000000001C1533.9 45.54900000000001 1533.89 45.540200000000006 1533.89 45.53090000000001C1533.88 45.52210000000001 1533.88 45.51780000000001 1533.8700000000001 45.50860000000001C1533.8700000000001 45.49940000000001 1533.8600000000001 45.49510000000001 1533.8500000000001 45.48590000000001C1533.8500000000001 45.47700000000001 1533.8400000000001 45.47240000000001 1533.8400000000001 45.46350000000001C1533.8300000000002 45.45470000000001 1533.8200000000002 45.45010000000001 1533.8200000000002 45.44510000000001C1533.8100000000002 45.436200000000014 1533.8100000000002 45.43160000000001 1533.8000000000002 45.42270000000001C1533.7900000000002 45.41810000000001 1533.7800000000002 45.409300000000016 1533.7700000000002 45.40470000000001C1533.7700000000002 45.40000000000001 1533.7600000000002 45.39080000000001 1533.7500000000002 45.38620000000001C1533.7400000000002 45.38200000000001 1533.7300000000002 45.37730000000001 1533.7300000000002 45.37310000000001C1533.7200000000003 45.368500000000004 1533.7100000000003 45.36390000000001 1533.7000000000003 45.354600000000005C1533.6900000000003 45.35040000000001 1533.6800000000003 45.345800000000004 1533.6700000000003 45.3415C1533.6600000000003 45.336600000000004 1533.6500000000003 45.332300000000004 1533.6500000000003 45.3277C1533.6400000000003 45.3231 1533.6300000000003 45.3185 1533.6200000000003 45.3139C1533.6100000000004 45.309599999999996 1533.6000000000004 45.309599999999996 1533.5900000000004 45.305C1533.5800000000004 45.3007 1533.5700000000004 45.2961 1533.5600000000004 45.2961C1533.5500000000004 45.2961 1533.5400000000004 45.291900000000005 1533.5400000000004 45.291900000000005C1533.5300000000004 45.287200000000006 1533.5200000000004 45.287200000000006 1533.5000000000005 45.287200000000006C1533.5000000000005 45.287200000000006 1533.5000000000005 45.2826 1533.4900000000005 45.2826L1518.4600000000005 43.1618L1518.4600000000005 41.018299999999996C1518.4600000000005 40.995599999999996 1518.4600000000005 40.972899999999996 1518.4500000000005 40.954899999999995C1518.4500000000005 40.950599999999994 1518.4500000000005 40.946 1518.4500000000005 40.937099999999994C1518.4500000000005 40.92359999999999 1518.4400000000005 40.9098 1518.4400000000005 40.8963C1518.4400000000005 40.882799999999996 1518.4400000000005 40.873999999999995 1518.4400000000005 40.8598C1518.4400000000005 40.8509 1518.4300000000005 40.8467 1518.4300000000005 40.8378C1518.4300000000005 40.824 1518.4200000000005 40.810500000000005 1518.4200000000005 40.797000000000004C1518.4200000000005 40.7924 1518.4100000000005 40.7832 1518.4100000000005 40.778600000000004C1518.4100000000005 40.76540000000001 1518.4000000000005 40.756600000000006 1518.4000000000005 40.7424C1518.3900000000006 40.7378 1518.3900000000006 40.7289 1518.3900000000006 40.7246C1518.3800000000006 40.7158 1518.3800000000006 40.7066 1518.3700000000006 40.697C1518.3600000000006 40.688100000000006 1518.3600000000006 40.6839 1518.3600000000006 40.675000000000004C1518.3500000000006 40.665800000000004 1518.3500000000006 40.6612 1518.3400000000006 40.652300000000004C1518.3400000000006 40.64340000000001 1518.3300000000006 40.63420000000001 1518.3200000000006 40.62500000000001C1518.3200000000006 40.620400000000004 1518.3200000000006 40.61580000000001 1518.3100000000006 40.61150000000001C1518.3000000000006 40.60260000000001 1518.2900000000006 40.59380000000001 1518.2800000000007 40.58420000000001C1518.2800000000007 40.57990000000001 1518.2800000000007 40.57530000000001 1518.2700000000007 40.57070000000001C1518.2600000000007 40.56180000000001 1518.2500000000007 40.55300000000001 1518.2400000000007 40.54370000000001C1518.2400000000007 40.53950000000001 1518.2300000000007 40.53490000000001 1518.2200000000007 40.53030000000001C1518.2100000000007 40.52100000000001 1518.2100000000007 40.51640000000001 1518.2000000000007 40.50760000000001C1518.1800000000007 40.498700000000014 1518.1700000000008 40.489500000000014 1518.1600000000008 40.48490000000001C1518.1600000000008 40.48060000000001 1518.1500000000008 40.48060000000001 1518.1500000000008 40.47600000000001C1518.1300000000008 40.46680000000001 1518.1100000000008 40.457900000000016 1518.0900000000008 40.44870000000002L1514.8300000000008 39.04720000000002C1514.5300000000009 38.91600000000002 1514.1800000000007 39.06070000000002 1514.0500000000009 39.372900000000016C1513.9200000000008 39.684300000000015 1514.0600000000009 40.041800000000016 1514.3700000000008 40.17310000000001L1517.260000000001 41.42090000000001L1517.260000000001 54.79590000000001C1517.260000000001 56.06150000000001 1518.190000000001 57.11070000000001 1519.390000000001 57.26930000000001C1519.170000000001 57.64030000000001 1519.040000000001 58.07370000000001 1519.040000000001 58.53520000000001C1519.040000000001 59.89590000000001 1520.120000000001 60.99940000000001 1521.4500000000012 60.99940000000001C1522.780000000001 60.99940000000001 1523.8600000000013 59.89200000000001 1523.8600000000013 58.53520000000001C1523.8600000000013 58.08260000000001 1523.7400000000014 57.65340000000001 1523.5300000000013 57.29160000000001L1528.9000000000012 57.29160000000001C1528.6900000000012 57.65800000000001 1528.5700000000013 58.082600000000006 1528.5700000000013 58.53520000000001C1528.5700000000013 59.89590000000001 1529.6500000000012 60.99940000000001 1530.9800000000014 60.99940000000001C1532.3100000000013 60.99940000000001 1533.3900000000015 59.89200000000001 1533.3900000000015 58.53520000000001C1533.3900000000015 57.17880000000001 1532.3100000000015 56.07070000000001 1530.9800000000014 56.07070000000001L1519.7000000000014 56.07070000000001C1519.0100000000014 56.07070000000001 1518.4500000000014 55.49640000000001 1518.4500000000014 54.79590000000001L1518.4500000000014 53.14080000000001C1518.8200000000013 53.357900000000015 1519.2400000000014 53.48450000000001 1519.7000000000014 53.48450000000001ZM1522.67 58.5306C1522.67 59.2177 1522.1200000000001 59.7742 1521.46 59.7742C1520.79 59.7742 1520.24 59.2134 1520.24 58.5306C1520.24 57.8478 1520.79 57.287 1521.46 57.287C1522.1200000000001 57.287 1522.67 57.843199999999996 1522.67 58.5306ZM1532.2 58.5306C1532.2 59.2177 1531.65 59.7742 1530.98 59.7742C1530.32 59.7742 1529.77 59.2134 1529.77 58.5306C1529.77 57.8478 1530.32 57.287 1530.98 57.287C1531.65 57.287 1532.2 57.843199999999996 1532.2 58.5306ZM1531.56 52.2636L1519.7 52.2636C1519.01 52.2636 1518.45 51.6894 1518.45 50.9888L1518.45 44.391999999999996L1532.81 46.412699999999994L1532.81 50.984199999999994C1532.81 51.693599999999996 1532.24 52.2636 1531.56 52.2636Z " fill="#27be6e" fill-opacity="1" transform="matrix(1,0,0,1,-1514,-38)"></path></svg>