<?xml version="1.0" encoding="utf-8"?>
<!-- Generator: Adobe Illustrator 19.2.1, SVG Export Plug-In . SVG Version: 6.00 Build 0)  -->
<svg version="1.1" id="Capa_1" xmlns="http://www.w3.org/2000/svg" xmlns:xlink="http://www.w3.org/1999/xlink" x="0px" y="0px"
	 width="512px" height="512px" viewBox="0 0 512 512" style="enable-background:new 0 0 512 512;" xml:space="preserve">
<style type="text/css">
	.st0{fill:#93C35A;}
</style>
<g>
	<path class="st0" d="M494.5,370.3c-21.5-21.7-42.9-43-63.7-63.6c-11.3-11.2-24.5-17.1-38.4-17.1c-13.8,0-27.1,5.9-38.3,17l-2.9,2.9
		c-11.3,11.2-23,22.8-34.4,34.5c-2.3-1.2-4.7-2.3-6.9-3.5c-5.2-2.5-10.1-5-14.5-7.7c-34-21.4-65.3-49.8-95.6-87.1
		c-14.7-18.1-24.9-34.1-32.1-50.4c10-9.7,19.9-19.7,29.5-29.4c2.4-2.4,5-5,7.4-7.4c23.6-23.7,23.5-54.3-0.1-78.1
		c-7.2-7.3-14.6-14.6-21.7-21.7c-3.2-3.2-6.3-6.3-9.5-9.5c-3.4-3.4-6.7-6.7-10-10c-7.2-7.3-14.7-14.8-22.2-22.1
		C129.9,5.8,116.6,0,102.9,0S75.8,5.8,64.6,16.9C59.2,22.3,53.7,27.7,48.6,33C41,40.7,33,48.6,25.1,56.2C10.3,70.3,2.1,88,0.5,109.1
		c-2.4,33.1,6.8,63,15,85.4c18.8,50.6,47.6,98.6,87.9,146.7c50.3,59.8,110.9,107.2,180,140.9c38.1,18.5,70.7,27.9,102.5,29.7
		c2.3,0.1,4.7,0.2,6.9,0.2c26.8,0,48.9-9.5,65.6-28.1c7.2-8,14.9-15.5,23-23.5c4.1-4,8.4-8.1,12.6-12.4
		C517.8,424.3,517.9,393.8,494.5,370.3z"/>
</g>
</svg>
